<?xml version="1.0" encoding="utf-8"?>
<!-- Generator: Adobe Illustrator 21.1.0, SVG Export Plug-In . SVG Version: 6.00 Build 0)  -->
<svg version="1.1" id="Camada_1" xmlns="http://www.w3.org/2000/svg" xmlns:xlink="http://www.w3.org/1999/xlink" x="0px" y="0px"
	 viewBox="0 0 366 75" style="enable-background:new 0 0 366 75;" xml:space="preserve">
<g id="XMLID_2_">
	<path id="XMLID_375_" d="M203.3,61.3c-1.1-0.4-1.3-0.8-0.6-2c1.2-2.1,2.8-4.1,3.1-6.6c0.1-0.4-0.2-0.9,0.3-1.2
		c1.4-3,1.9-6.2,1.9-9.6l0,0c0.3-1.1-0.3-2-0.8-2.9c-0.4-0.6-0.8-1.2-1.2-1.8c-0.1-0.1-0.2-0.2-0.3-0.4l0,0
		c-3.7-2.5-6.7-2.3-10.2,0.1c-1.2,0.8-2.2,1.8-3.2,2.7c-0.4,0.4-0.7,0.7-1.1,1.1c-0.2,0-0.3,0.1-0.3,0.3c-0.7,0.8-1.6,1.4-1.9,2.5
		c-1.9,3.2-4.1,6.4-4.2,10.4c-0.1,1.4-0.7,2.8,0.4,4.1c-0.1,0.8,0.4,1.4,0.6,2.1c0.3,0.9,0.4,1.9,1.2,2.6c1,0.9,1.9,1.9,3.2,2.4
		c0.2,0.5,1.1,0.1,1.1,0.7c-0.1,0.6-0.6,1-1.2,1.2c-1.5,0.5-3,1-4.4,1.6c-0.9,0.5-1.6,0-2.4-0.3c-0.5-0.5-1.2-0.6-1.9-0.7
		c-0.3-0.3-0.5-0.7-0.8-1c-0.9-0.6-0.5-1.9-1.4-2.5c-0.2-1.3-0.4-2.6-0.6-3.9c0.4-3.2,1.3-6.2,2.5-9.2l0,0c1.4-1.9,1.7-4.2,2.9-6.2
		c0.4-0.4,0.7-0.9,1.1-1.3c0.5-0.8,1-1.5,1.5-2.3c2.5-3.5,5.5-6.4,8.6-9.4l0,0c1.6-1.1,3.2-2.1,4.7-3.2c0.4-0.2,0.5-0.8,1-0.8
		c1.7-0.7,3.5-1.2,5.3-1.1s3.8-0.2,5.1,1.6c0.1,0.1,0.2,0.2,0.3,0.3c0.4,0.7,0.8,1.4,1.1,2.1c-0.2,1.4,0.7,2.7,0.5,4.2
		c-0.1,0.6,0.6,1.2,1.4,1c0.5-0.1,1.3,0,1.4-1c0.2-2.6-0.2-5.1-1.6-7.4c0-0.3-0.3-0.4-0.5-0.4c-0.3-0.7-1-1-1.6-1.4
		c0.1-0.5-0.3-0.7-0.7-0.9c-3.8-2.6-8-2-11.8-0.5c-3.2,1.2-6.3,3-8.7,5.8c-0.6,0.6-1.5,1-1.9,1.8c-0.3,0-0.5,0.2-0.7,0.4
		c-1.9,2.4-3.6,4.9-5.4,7.4c-2.9,3.9-4.7,8.1-6.4,12.6c-0.9,2.4-1.2,4.8-1.1,7.3c-0.1,0.3-0.1,0.5,0,0.8c0,3.3,1.2,6.1,3.4,8.6
		c0.4,0.4,0.6,1,1.2,1.2c0.4,0.3,0.8,0.7,1.4,0.6c0.6,0.9,1.6,1.1,2.6,1.1c4.8,1.3,8.2-1.4,11.6-4c0.6-0.6,1.2-1.1,1.8-1.7
		c2.2-0.7,4-2.1,5.7-3.6C203.7,62.2,204.4,61.8,203.3,61.3z M186.6,60.6L186.6,60.6C186.5,60.5,186.6,60.5,186.6,60.6z M195.3,63.5
		L195.3,63.5L195.3,63.5L195.3,63.5z M199.3,64.5L199.3,64.5c-0.1,0-0.1,0-0.2,0C199.1,64.3,199.4,64.5,199.3,64.5z M197.4,59.7
		c0,0.1-0.1,0.3-0.1,0.4c-0.1,0.2-0.2,0.4-0.3,0.6c-0.3,0.5-0.7,0.9-1.1,1.4c-0.2,0.2-0.4,0.3-0.5,0.5c-0.7,0.5-1.4,0.7-2.2,0.6
		c-0.6-0.2-1.2-0.2-1.7-0.6c-0.6-0.3-1.1-0.8-1.7-1c-0.1,0-0.1,0-0.2,0c-0.6-0.5-0.3-1.6-1-2c0-0.1-0.1-0.1-0.1-0.2l-0.1-0.1
		c-0.2-0.4-0.3-0.8-0.3-1.3c0.1,0,0.2-0.1,0.2-0.1c0.4-2.8,1-5.5,2.2-8c0-0.5,0.1-0.9,0.3-1.3c0.1-0.2,0.2-0.4,0.3-0.6
		c0.1-0.1,0.1-0.2,0.2-0.3c0.1-0.1,0.2-0.3,0.3-0.4c0.1-0.1,0.1-0.2,0.2-0.3c0.2-0.2,0.3-0.4,0.5-0.6c0.1-0.1,0.1-0.1,0.1-0.2
		c0.1-0.1,0.2-0.3,0.2-0.4c0-0.1,0.1-0.2,0.1-0.2c0.2-0.3,0.4-0.5,0.6-0.8c0.3-0.2,0.6-0.3,0.9-0.5c0.5-0.3,0.8-0.7,1.2-1.1
		c1.6-1.5,3.3-2.7,5.3-3.5s3.4,0.3,3.3,2.3c-0.3,3.9-0.9,7.7-2.9,11.3C200.1,55.5,198.7,57.5,197.4,59.7z"/>
	<path id="XMLID_381_" d="M123.2,60c-0.4,0.2-0.7,0.3-1.1,0.5c-2.2-0.5-3.8-4.7-2.5-6.6c1.1-1.6,2.5-3,3.6-4.8
		c0.6-1,1.2-1.8,0.2-2.8c-1-0.9-3.3-1.1-4-0.3c-1.3,1.6-2.7,3-3.3,5.1c-0.5,2-1.1,4.1-2.3,5.9c-0.5,0.7-0.9,1.4-1.3,2.1
		c-0.8,0.9-1.6,1.7-2.5,2.6c-1.7-0.2-1.6-1.5-1.5-2.7c0.2-3.2,0.9-6.3,3.6-8.5c0,0,0.1,0,0.1-0.1l0,0c0.6-0.8,1.3-1.6,0.3-2.6
		c-0.7,0-1.1-0.7-1.5-1.1c-1-1-1.4-0.7-2,0.4c-0.4,0.8-0.6,1.8-1.4,2.5c-1.6,1.5-2.7,3.4-3.4,5.5l0,0c-0.5,0-1.1-0.2-1.3,0.3
		c-1.2,2.3-3.2,4.1-4.5,6.3c-0.9,1.1-1.8,2.2-2.8,3.3l0,0c-0.4,0.4-0.7,0.8-1.1,1.1c-0.4,0.3-0.6,1.1-1.2,0.7
		c-0.4-0.2-0.7-0.8-0.6-1.4c0.1-1.1,0.2-2.2,0.7-3.2C94,61,95,60,95.3,58.7c0.5-0.8,0.9-1.5,1.4-2.3c1.2-0.9,0.8-2.7,2.1-3.7
		c0.1-0.1-0.2-0.5-0.5-0.6c0.1-1,0.7-2.4-1.3-2h-0.1L96.8,50c-0.2-0.1-0.4-0.4-0.5-0.6c-0.4-0.4-0.7-0.3-1,0.1l0,0l0,0l0,0l0,0l0,0
		l0,0l0,0c-1.8,2.2-3.4,4.5-4.3,7.3c-1.1,3.5-3.1,6.4-5.4,9.2c-1.6,0.6-0.5-1-1-1.3c0.8-0.9,0.5-2.1,0.7-3.2
		c0.7-0.5,0.4-1.2,0.4-1.8l0,0l0,0l0,0l0,0c0.9-2.4,0.8-4.7-0.4-7c-3.3-2-3.6-1.9-5.5,1.2c-1.2,1.4-2.5,2.8-3.7,4.2l0,0l0,0
		c0.3-2.5-0.6-4.5-3-5.7c-1-0.5-1.6-0.4-2,0.6c-0.1,0.1-0.1,0.2-0.2,0.3c-2,3.2-4.8,5.8-6.7,9.1l0,0c-0.1,0.1-0.2,0.2-0.3,0.3
		c-1,1.2-1.9,2.4-2.9,3.6c-0.9,0.1-0.5-0.6-0.7-1c0.2-0.5-0.1-1.1,0.4-1.5c0.6-0.7,0.3-1.7,0.8-2.5c1.4-2.9,2.5-6,0.8-9.1
		c-0.4-0.8-2-1.6-3.1-1.3c-1.5,0.5-3.1,1.1-4.3,2.3v0.1v-0.1c-2.8,1.5-4.5,4.2-6.7,6.4c-0.7,0.7-1.3,1.8-2.1,2.2
		c-1.1,0.5-2,1.3-2.8,2.1c-1.4,1.6-3,2.8-4.8,3.9c-0.8-0.2-1.5,0-1.6,1c-0.7,0.9,0.4,1.4,0.6,1.9c0.7,1.7,3.4,1.8,4.4,0.3
		c0.6-0.8,1.3-1.4,2-2c2.1-2,2.1-2,3.8,0.3c0.1,0.1,0.3,0.2,0.4,0.3c0.5,0.5,1.1,0.6,1.7,0.7l0,0c0.5,0.7,1.1,0.7,1.8,0.5
		c1.3-0.3,2.3-1.1,3.1-2.1c0.6-0.8,1-0.7,1.3,0.1c0.1,0.7-0.4,1.5,0.6,1.9c0.2,0.5,0.2,1.1,0.8,1.5c0.2,0.3,0.5,0.2,0.7,0.3
		c0.7,0.3,1.4,1.1,2.3,0.5l0,0l0,0l0,0l0,0c0.6-0.1,1-0.3,1.4-0.8c0.8-1,1-2.2,2-3.1c1.4-1.3,2.3-3.1,3.1-4.8l0,0l0,0l0,0l0,0
		c1.6-1.9,2.9-4,4.2-6.1c0.3-0.2,0.7-0.7,0.8,0.1c0,0.5-0.1,1-0.1,1.5c-0.7,2.5-1.6,5-1.9,7.6c-0.4,1.3,0.6,2,1.4,2.6
		c0.8,0.7,1.6,0.3,2.3-0.4c0.7-0.5,0.6-1.3,0.7-2.1l0,0l0,0c1.7-2.1,3-4.6,4.3-7c0.7-1.3,1.7-2.4,3.2-3.4c-0.1,1-0.2,1.7-0.2,2.3
		l0,0l0,0c-0.3,0.3-0.2,0.6-0.3,0.9c-0.7,1-0.1,2-0.3,3.1l0,0l0,0l0,0c-0.7,1.6-0.4,3.2-0.1,4.8l0,0c0.4,1.7,1.5,2.8,3.2,3.3
		c1.8,0.5,2.1-1.2,3.1-1.9c0.8-0.6,0.8-2.4,1.9-2.3c0.6,0.1,1.1,1.6,1.7,2.5c0.9,1.3,3.1,1.7,4.2,0.9c0.7-1,2.2-1.2,2.7-2.5l0,0
		c0.1-0.1,0.1-0.2,0.2-0.4c1.7-1.8,3.2-3.7,4.7-5.8c0.6-0.6,1.4-1.1,1.6-2.2c0.1-0.7,0.6-0.2,0.9,0l0,0c0,0.2,0,0.5,0,0.7
		c0.3,1.1,0.4,2.4,1.2,3.4c0.6,0.7,0.2,1.3-0.3,1.7c-0.8,0.6-1.6,1.4-2.6,1.6c-0.4-0.5-0.6-0.8-1.3-0.2c-1.3,1.1-0.8,2.2-0.3,3.1
		c0.6,1,1.6,1.9,3,1.2c2-0.4,3.8-1.6,5.8-2.2l0,0c0.6-0.2,1-0.4,1.1-1.1c-0.1-0.5-0.3-1-0.4-1.4c0.9-2.3,2.4-4.2,3.6-6.3
		c0.4-0.7,1.3-2.1,2.5-0.5c0.2,0.4,0.4,0.7,0.6,1.1c0.4,0.9,0.2,1.4-0.6,2c-0.8,0.6-1.8,1.4-1.1,2.7c0.3,0.7,1.3,0.9,1.4,1.7
		c0.2,0.6,0.7,0.7,1.2,0.7l0,0c0.2,0.1,0.5,0.1,0.7,0c1.2,0,2.4-0.3,3.4-1.1c0.7-0.5,1.1-1.4,0.3-2.3c-0.5-1.3-0.1-2.6,0.4-3.8
		c0.4-0.2,0.8-0.5,0.5-0.9C124,59.8,123.5,59.8,123.2,60z M56.1,59.1c-0.6,1.1-1.4,2.1-1.9,3.2c0,0.1-0.1,0.2-0.1,0.3
		c-1,0.9-1.3,2.3-2.4,3.2c-0.4,0.3-0.7,0.7-1.2,0.4c-0.1-0.1-0.1-0.1-0.2-0.2c-0.2-0.3-0.1-0.6,0-0.9c0-0.1,0.1-0.2,0.1-0.2
		c1.3-2.6,3.2-4.8,5.6-6.6c0.3-0.1,0.5-0.2,0.8-0.1C56.5,58.6,56.3,58.8,56.1,59.1z M52.7,66L52.7,66L52.7,66L52.7,66z M64.2,67.1
		L64.2,67.1C64.3,67.1,64.3,67.1,64.2,67.1C64.3,67.1,64.3,67.1,64.2,67.1C64.3,67.1,64.2,67.1,64.2,67.1z M49.7,70.4
		c0.1,0,0.3,0.1,0.5,0.2C50.1,70.5,49.9,70.5,49.7,70.4z"/>
	<path id="XMLID_387_" d="M39,60.5c1.1-1.4,2.6-2.6,3-4.4c0.7,0,1-0.6,1.3-1.1c0.6-1.1,1.4-1.5,2.6-1.1l0,0c0.4,0.3,0.9,0.3,1.5,0.3
		c3,0.7,5.1-1,7.3-2.5c3.5-2.7,6.7-5.8,9-9.7l0,0c1.1-0.8,1.6-2,2-3.2c0.6-0.5,1.1-1,1.1-1.8c0.4-0.6,0.9-1.1,0.9-1.8
		c0.1-0.3,0-0.6,0.4-0.8c0.5-1.3,1.1-2.7,1.9-3.9l0,0l0,0l0,0l0,0c0.4-0.8,0.7-1.6,1.1-2.3c0.6-1.1,0.1-1.9-1-1.8
		c-0.3,0.3-0.2,0.7-0.2,1.1c-0.1,0.1-0.2,0.2-0.3,0.4c-0.8,0.6-1.5,1.2-1.8,2.2c-0.6,1-0.8,2.2-1.9,2.9l0,0
		c-0.1,0.1-0.2,0.2-0.3,0.3c-1.5,2.1-2.9,4.1-4.4,6.2c-0.4,0.2-0.8,0.5-1,1c-0.9,0.9-1.4,2.2-2.5,2.9l0,0l0,0l0,0l0,0
		c-1.2,1-2.3,2.1-3.2,3.3c-0.5,0.2-0.8,0.6-1.1,1.1c-0.6,0.5-1.3,0.9-1.9,1.4l0,0c-1,0.6-2.1,1.2-3.1,1.8c-0.7,0-1.8,0.5-2.2-0.1
		c-0.5-0.7,0.8-1.2,0.8-2l0,0c0.8-1.7,1.7-3.3,2.5-5c0.9-1.9,2-3.8,2.8-5.8c1.4-3.4,3.3-6.6,4.4-10.1c0.1-0.3,0.2-0.5,0.3-0.8
		c0.5-0.5,0.6-1.1,0.7-1.7l0,0c0.9-0.9,1-2.1,1.1-3.2c0.2-0.5,0.5-0.9,0.7-1.4c1.1-0.7,0.5-1.9,0.8-2.9s0.3-2.1,0.8-3
		c1.3-2.4,0.6-4.7,0.2-7.1l0,0C61.2,7,61.5,6,60.6,5.3c-0.2-0.2-0.4-0.4-0.6-0.7l0,0l0,0c-0.9-2-2.9-2.3-4.7-2.9c-1-0.6-2-0.2-3,0
		l0,0c-3.2,0.6-4.9,3.1-6.8,5.3c-0.9,0.5-1.2,1.5-1.8,2.3l0,0c-0.4,0.5-1,1-1.1,1.8l0,0l0,0l0,0l0,0c-0.3,0.5-0.7,1-1,1.5
		c-1.2,1.7-2.2,3.5-2.8,5.4c0,0-0.1,0-0.1,0.1c0,0,0,0,0,0.1c-0.9,1.5-1.3,3.1-1.8,4.8c-0.4,0.3-0.3,0.7-0.4,1.1c-0.5,1.3-1,2.6-1,4
		l0,0l0,0l0,0l0,0c-0.7,1.4-0.7,3-0.7,4.6c-0.1,0.1-0.1,0.2-0.1,0.3c-0.4,1.9-0.4,3.8,0.1,5.7l0,0v0.1c-0.3,1.1,0,2.1,0.4,3.1l0,0
		c0,0.4-0.1,0.7,0.2,1c0.2,0.6,0,1.3,0.5,1.8c0,1,0.6,1.8,1.1,2.5c0.9,1,1.3,2.5,2.5,3.2c0.2,0.4,0.5,0.8,1,1.1
		c0.1,1.2-0.5,2.1-1.2,2.9c-1,1.1-1.9,2.2-2.7,3.4c-1,0.8-1.7,1.9-2.5,2.9c-0.2,0.2-0.5,0.4-0.7,0.6c-1.5,1.1-2.8,2.6-5,2.6l0.1,0.1
		l-0.1-0.1c-0.4-0.4-0.7-0.7-1.1-1.1c-0.1-0.1-0.2-0.2-0.3-0.3c-0.5-0.8-0.1-2-1.1-2.5c-0.7-1.9-0.2-3.8-0.4-5.7l0,0l0,0l0,0l0,0
		c0.1-0.3,0.1-0.7,0-1l0,0c0.1-2.3,0.2-4.6,0.3-6.9c0.4-2.4,1-4.8,1.1-7.3c-0.1-0.9,0.1-1.8-0.4-2.6l0,0c-0.5-1-1.4-1.5-2.4-1.7
		c-0.8-0.7-1.7-0.4-2.5,0c-3.4,1.8-6.9,3-10.6,3.8c-0.9,0.3-1.8,0-2.7,0.4c-0.1,0-0.1,0.1-0.2,0.1c0-0.1-0.1-0.1-0.2,0
		c-1-0.7-2.1-0.7-3.3-0.7c-0.6-0.3-1-1.2-1.8-0.4c-0.8,1.2-0.2,2.2,0.7,3l0,0l0,0l0,0l0,0l0,0c0.3,0.7,0.3,1.7,1.5,1.4l0,0l0,0
		c0.6,0,1.1,0.1,1.7,0.1C7.4,43,8,42.6,8.6,42.3c0.2,0,0.4,0,0.7,0c0.7,0.3,1.5,0.5,2.2,0l0,0c0.6-0.1,1.3,0.1,1.8-0.4l0,0
		c1.3-0.2,2.6-0.3,3.6-1.1c1.8-0.6,3.7-0.7,5.4-1.8l0,0c0.5,0,0.7,0.2,0.6,0.8c-0.3,2-0.5,4-0.7,5.9c-0.5,0.4,0,1-0.1,1.4l0,0
		c-0.3,0.5-0.4,0.9,0.1,1.3c-0.6,3.1-0.4,6.1,0,9.2l0,0c0.2,0.6-0.3,1.3,0.4,1.9c0.5,1.5,1,3,1.7,4.4c2,3.5,4.3,4.5,7.4,3.1l0,0l0,0
		c2.4-1.3,4.7-2.6,6.1-5.1C38.3,61.7,38.6,61,39,60.5z M37.6,37L37.6,37L37.6,37c0-0.1-0.1-0.1-0.1-0.2h0.1
		C37.6,36.8,37.6,36.9,37.6,37z M37.2,31.9L37.2,31.9c0-0.1,0-0.1,0-0.1S37.2,31.8,37.2,31.9z M41.3,16.1L41.3,16.1L41.3,16.1
		L41.3,16.1L41.3,16.1z M61,9.7L61,9.7L61,9.7L61,9.7L61,9.7z M56.1,28.1c0-0.1,0-0.1-0.1-0.2C56.1,28,56.1,28,56.1,28.1L56.1,28.1z
		 M52.3,48.8c-0.2,0.1-0.5,0.3-0.7,0.3C51.8,48.8,52.1,48.8,52.3,48.8z M45.7,14.5c2.4-3.7,4.7-7.6,9.5-8.8c0.3-0.1,0.5-0.3,0.7-0.5
		L56,5.1c0.1,0.1,0.2,0.1,0.3,0.2l0,0c0.1,0.1,0.2,0.3,0.3,0.4C56.8,5.9,57,6,57.1,6.2c0.5,0.6,0.9,1.3,1.2,2.1
		c0.1,0.4,0.2,0.8,0.2,1.2s0,0.8,0,1.2c0,0.2,0,0.4,0,0.5c0,0.3-0.1,0.7-0.1,1c-0.1,0.4-0.2,0.9,0,1.2c0,0.3,0,0.5,0,0.8
		c-0.1,0.1-0.1,0.2-0.2,0.3c-0.1,0.2-0.1,0.3-0.2,0.5c-0.1,0.2-0.1,0.4,0,0.7c-0.8,2.4-1.8,4.7-2.2,7.2c0,0,0.1,0,0.1-0.1
		c0,0-0.1,0-0.1,0.1c-0.8,0.3-0.9,1-1,1.7v0.1c-0.1,0-0.1-0.1-0.2-0.1c-1.7,2.5-2.7,5.4-3.9,8.1c-0.1,0.3-0.1,0.6,0,0.9
		c0.1,0,0.1,0,0.2,0c0,0-0.1,0-0.1,0.1l0,0c0,0-0.1,0-0.1-0.1c-0.9,0.1-1.1,0.9-1.3,1.5c-1.5,3.3-3.1,6.6-4.8,9.7
		c-0.4,0.8-1,1.5-0.9,2.4l0,0c-0.9,0.3-1.2,1-1.5,1.7c-0.5-0.7-1.1-1.3-1.8-1.7h-0.1c0-0.9-0.4-1.6-1.1-2.2c0-0.2,0-0.4,0-0.5
		c-0.3-1.9-0.3-3.9-1.5-5.6c-0.1-0.1-0.2-0.2-0.3-0.3c0.8-1,0.6-2.2,0.4-3.3c0-0.2,0-0.4-0.1-0.6l0,0c0.5-0.7,0.6-1.4,0.5-2.2
		c0-0.1,0-0.2,0-0.4c0.3-0.5,0.1-1.1,0.2-1.7c0.1-0.1,0.2-0.3,0.2-0.4l0,0c0.3-0.6,0.2-1.2,0.3-1.8c0-0.1,0.1-0.1,0.1-0.2
		c0.1-0.1,0.2-0.3,0.2-0.4c0.2-1,0.4-1.9,0.6-2.8c0-0.1,0-0.2,0-0.3c0.3-0.3,0.3-0.8,0.4-1.1c0.1-0.1,0.3-0.2,0.4-0.4
		c0.2-0.3,0.3-0.7,0.4-1.1c0.3-0.6,0.6-1.3,0.7-2c0.1-0.3,0.2-0.6,0.4-0.9C43.4,17.5,44.7,16.1,45.7,14.5z M35.2,63.9L35.2,63.9
		L35.2,63.9L35.2,63.9z"/>
	<path id="XMLID_395_" d="M241.8,39.7c1,0.4,2.4-0.6,2.4-1.7c0-0.8-2.7-3.4-3.6-3.3c-0.6,0.1-1,0.2-1.1,1
		C239.4,37.2,240.4,39.2,241.8,39.7z"/>
	<path id="XMLID_396_" d="M290.2,38.7c1.5,0.1,1.4-1.2,1.7-1.9c0-1.6-1.1-3.4-2.1-3.5c-0.7,0-2.5,1.6-2.5,2.3
		C287.4,36.4,289.4,38.6,290.2,38.7z"/>
	<path id="XMLID_399_" d="M363.8,54.3c-2-2-2-2-4-0.3c-0.2,0.2-0.4,0.4-0.6,0.5l0,0c-3.3,1.8-6.6,3.7-10,5.4
		c-5.2,2.5-10.7,4-16.5,4.8c-3,0.4-6,1-9,0.9c-0.5-0.3-1-0.2-1.5-0.2c-2.1-0.3-4.2-0.4-5.8-2c-0.1-0.1-0.1-0.1-0.2-0.2l0,0l0,0l0,0
		l0,0c-0.4-0.5-0.8-0.9-1.1-1.4c-0.2-0.4-0.4-0.7-0.7-1.1c-0.1-1.9,0.6-3.8,0.3-5.7c-0.1-0.1-0.1-0.1-0.1-0.2c0,0.1,0.1,0.1,0.1,0.2
		c-0.2-1.1,1.6-2,0.3-3.2c-0.1-0.2-0.3-0.5-0.4-0.7l0,0c-0.9-0.7-1.1-2.1-2.5-2.3c-1.3-1.2-2.8-1.3-4.5-0.4c-2.5,1.5-5,2.8-7,5.3
		c-1.3,1.7-3.1,3.3-4.7,4.9c-1.4,1.4-2.3,3.2-3.3,4.9c-0.2,0.3-0.2,0.9-0.7,0.8s-0.4-0.6-0.6-1c0-0.6,0.1-1.2,0.1-1.8l0,0l0,0l0,0
		l0,0c0.3-1.3,0.7-2.7,1-4c0.4-0.5-0.1-1,0-1.4c0.2-0.7,0.4-1.5,0.7-2.2c0.5-1.1,0.6-2.2-0.3-3.1c-1-0.9-2.1-1.1-3.2-0.4l0,0l0,0
		c-0.1,0-0.2,0-0.4-0.1c0.1-0.5,0.5-0.6,0.8-0.9c1.2-0.8,1.5-1.7,0.7-2.9c0-0.1-0.1-0.1-0.1-0.2l0,0c-0.3-0.3-0.7-0.5-1-0.8
		c-1.6-0.8-2.8-0.4-3.7,1c-1.5,0.6-2.4,1.6-2.5,3.3c-0.5,0.3-0.3,0.8-0.4,1.3c-0.3,1.4,0.4,2.8-0.6,4.1c-2,2.6-4,5.2-6.1,7.7
		c-0.2,0.3-0.4,0.7-0.8,0.5c-0.4-0.1-0.4-0.6-0.5-0.9c-0.4-1.4,0.3-2.7,0.2-4l0,0l0,0c0.8-2,1.5-4,2.7-5.9c0.9-1.3-0.1-3-1.9-3.7
		c-1.5-0.6-1.9,0.7-2.5,1.6c-0.6,1-1.1,2.1-1.6,3.2c-1.1,0.5-1.2,1.6-1.6,2.5c-0.7,1.5-1.4,3-2.8,4l0,0l0,0c-0.3,0.4-0.7,0.7-1,1.1
		l0.1,0.1l0,0l-0.1-0.1c-0.6,1.4-1.9,1.9-3,2.9c-1.4,0.6-2.8,1.9-4.5,0.9c-0.1-0.1-0.2-0.1-0.3-0.1c-0.3-1-0.3-1.9,0.6-2.3
		c0.3,0,0.5-0.1,0.8-0.2c1.7-0.7,2.8-2.1,3.7-3.5c1.3-1,1.5-2.7,2.4-4c0.5-0.4,0.7-0.9,0.7-1.4c0.4-1,0.7-1.9,1.1-2.9
		c1-2.6,0.5-3.9-2.1-5.1c-0.4-0.2-0.8-0.3-1.2,0c-1.7,1.4-3.8,2.1-4.8,4.3c-0.4,0.8-1.1,1.7-2.3,1.8c-0.5-0.4-1-0.9-1.5-1.3
		c-0.6-0.3-1,0-1.4,0.3c-0.8-0.3-1,0.5-1.4,0.8c-0.9,0.8-1.1,2.2-2.3,2.7l0,0c-1.2,1-2.3,2.2-3.2,3.5c-0.5,0.2-0.6,1-1.3,1.2
		c-0.6-1.3,0.4-2.7-0.1-4c0.2-1.1-0.5-1.7-1.3-2.2c-0.6-1.1-1.4-1.8-2.7-1c-3.1,3.1-6,6.5-8.3,10.3c-0.6,0.8-1.2,1.5-1.8,2.3
		c-0.9,1-1.8,2-2.7,3c-0.3,0.3-0.6,0.4-0.9,0.2c-0.3-0.2-0.1-0.5,0-0.8c0.5-2.1,1.1-4.2,1.6-6.3c0.4-1.7,1.4-3.2,1.2-5
		c1.3-0.7,1.4-2.1,1.2-3.2c-0.2-0.9-1.3-1.7-2.4-1.8c-1.3-0.1-1.8,1-2.1,2c-0.2,0.5-0.4,1-0.7,1.4c-0.8,1.2-1.5,2.4-2.3,3.6l0,0
		c-1,1-1.9,2-2.6,3.2l0,0c-0.1,0.1-0.2,0.2-0.2,0.3c-0.3,0.3-0.5,0.6-0.8,1c-1.8,2.2-3.7,4.4-5.9,6.1c-0.6,0.5-1.6,1.3-2.2-0.1
		c0.8-0.8-0.4-1.1-0.5-1.8c-0.3-2.5,1.5-3.7,3-5c2.3-1.9,4.5-4,5.7-6.8c0.9-1.4,2.9-2,3.2-4c0.1-0.1,0.3-0.3,0.4-0.4
		c1.5-1.8,2.7-3.8,3.3-6c1-1,1-2.5,1.8-3.6l0,0l0,0l0,0l0,0c0.8-1.3,0.4-2.5-0.4-3.7c-0.1-0.5,0-1.2-0.7-1.3
		c-0.4-0.4-0.7-0.7-1.1-1.1c-1.1-1.3-2.3-1.2-3.6-0.4c-1.5,0.3-2.6,1.1-3.3,2.5c-1.6,1.6-2.9,3.3-3.6,5.4c-0.1,0.1-0.2,0.2-0.3,0.3
		c-0.2,0.5-0.4,1-0.7,1.5c-0.1,0-0.1,0.1-0.1,0.2c-0.5,0.9-1.2,1.7-1.4,2.7l0,0l0,0l0,0c-0.7,0.5-0.6,1.4-0.8,2.1
		c-1.3,1.9-1.7,4-2.4,6.1c-0.8,1.2-1.3,2.5-1.5,3.9c-0.2,1.6-0.7,3.2-2.3,4.2c-0.8,0.5-1.8,1-2.3,1.9c-1.3,0.5-2.3,1.5-3.7,2
		c-2.5,0.8-2.6,1.5-1,3.6c0.5,0.6,1,1.2,1.8,0.6c0.1-0.1,0.3-0.2,0.5-0.3c-0.2,0.1-0.3,0.2-0.5,0.3c0.4,0,0.9,0.2,1,0.1
		c1-1.4,2.9-1.5,3.8-2.9c0.4-0.7,1.1-1.1,1.7-1c0.6,0.2,0.8,1,0.6,1.7c-0.1,0.5,0.1,0.9,0.6,1.1c0.2,0.3,0.4,0.6,0.7,0.8
		c2.1,2.5,3.7,2.8,6.4,0.9c0.3-0.2,0.7-0.5,1-0.8c2.3-2,4.6-4,6.3-6.6c-0.1,0.9-0.3,1.7-0.4,2.6l0,0l0,0l0,0l0,0
		c-0.2,1.4,0,2.8,0.7,4l0,0c0.1,0.7,0.5,1,1.1,1.1c0.1,0.3,0.4,0.3,0.7,0.3c1,0.8,2.1,0.7,3-0.1c1.2-1.1,2.1-2.3,3.2-3.5
		c0.2-0.2,0.4-0.4,0.5-0.7c0.8-1.2,1.6-2.4,2.4-3.6c0.8-0.3,0.8-1.1,1.1-1.8c1.5-1.4,2.4-3.4,3.8-5c0.3-0.4,0.4-1.1,1-1.1
		c1,0.1-0.1,1.1,0.5,1.4c-0.7,2.7-1.4,5.3-1.8,8c-0.4,1.1-0.4,2.1,0.3,3.1l0,0c0.1,0.9,0.6,1.4,1.5,1.4c0.4,0.8,0.8,0.4,1.4,0.1
		c1.2-0.5,0.8-1.7,1.2-2.6c2.1-3.9,4.1-8,6.7-11.6c0.7-0.3,1.1-1.1,1.9-1.3c0.5-0.1,1-0.1,0.9,0.4c-0.2,1,0.4,2.1-0.1,3.2
		c-0.5,1.1-0.3,2.4,0.1,3.5l0,0l0,0l0,0l0,0c0.1,0.6,0.3,1.2,0.4,1.8c0,0.1,0.1,0.2,0.1,0.3c0,0.3-0.1,0.6,0.2,0.8
		c0.2,0.7,0.3,1.3,0.9,1.8c0.9,0.7,1.7,1.5,2.8,1.8c0.5,0.4,1.1,0.8,1.8,0.4c0.7,0.7,1.6,0.5,2.2,0.2c1.2-0.6,2.2-1.5,3.3-2.3
		c2-1.1,2.8-3.2,4.4-4.7c0.7,0.4,0.4,1.2,0.9,1.6c-0.3,1.5,0.6,2.6,1.4,3.6c1.2,1.7,3.6,1.6,4.7-0.2c1.2-1.7,2.4-3.3,3.7-5l0,0
		c1-1.7,1.6-3.5,2.8-5.1c0.1-0.1,0.1-0.2,0.2-0.3c0.7-1.2,2.2-0.4,3.1-1.1c0.3-0.1,0.6-0.2,0.9-0.3c0.1,0.2,0.3,0.4,0.4,0.6
		c-0.6,0.6-0.3,1.3-0.3,1.9l0,0l0,0l0,0c-0.7,1.3-0.3,2.6-0.3,3.9c0,0.2,0,0.5,0,0.7c-0.1,1.3,0.3,2.5,0.7,3.7
		c0.1,0.2,0.1,0.5,0.2,0.7c0.2,0.6-0.1,1.3,0.8,1.5c0.3,0.3,0.5,0.8,1.1,0.7c0.6,0.4,1.2,1.2,1.9,0.1c0.4-0.4,0.7-0.8,1.1-1.1
		c0.6-0.3,0.6-1,0.7-1.5c0.2-0.3,0.5-0.7,0.7-1l0,0c1.1-0.9,1.4-2.3,2.6-3.4c0.1,0.9,0.2,1.5,0.3,2.1c0.1,0.7-0.2,1.6,0.7,2
		c0.3,0.5,0.6,1,1.3,1.1c0.4,0.9,1,0.8,1.7,0.3c2.2,0.2,3.4-1.4,4.6-2.8c0.6-0.3,1.1-0.5,1.5-1.1c0.8-0.6,1.3-1.2,1.7-2.1
		c0.2-0.4,0.4-1.5,1.4-1.1c0.1,0.6-0.1,1.2,0.4,1.7c0.5,1.4,1.5,2.3,2.5,3.3c0.1,0.3,0.4,0.6,0.7,0.7c0.4,0.5,0.9,0.6,1.4,0.8
		c1.6,1.7,4,2,5.9,2.2c2.6,0.2,5.4,0.2,8.1-0.4c0.6-0.1,1.3-0.2,1.9-0.3c6-0.7,11.9-2,17.5-4.4l0,0l0,0l0,0l0,0
		c4.8-2.4,9.8-4.6,14.4-7.6l0,0C365.1,55.5,364,54.9,363.8,54.3z M219.4,44.1L219.4,44.1L219.4,44.1L219.4,44.1z M222.6,47.3
		c-2.2,3-4.4,6-7,8.8c0.3-0.9,0.6-1.6,0.4-2.5c-0.1-0.1-0.1-0.3-0.2-0.4c0.6-0.3,0.7-0.9,0.9-1.4c0.1-0.1,0.2-0.3,0.3-0.5
		c0.2-0.5,0.5-1,0.8-1.5c0.1-0.2,0.2-0.5,0.2-0.7c0.5-0.9,0.9-1.9,1.3-2.8l0,0c0.4-0.9,0.7-1.8,1.1-2.7l0,0l0,0c0,0,0,0,0-0.1
		c0.7,0.1,1-0.5,1.3-1c0.8-1.4,2-2.5,3-3.8c0.5-0.6,1.1-1.3,1.9-0.8c0.8,0.5,0.3,1.4,0.1,2.1c-0.1,0.2-0.2,0.4-0.3,0.6
		C225.2,42.8,224.2,45.2,222.6,47.3z M247.8,58.5L247.8,58.5L247.8,58.5C247.7,58.5,247.7,58.5,247.8,58.5
		C247.7,58.5,247.8,58.5,247.8,58.5z M228.4,56.7C228.4,56.7,228.4,56.8,228.4,56.7C228.3,56.8,228.4,56.8,228.4,56.7z M263.9,64.2
		C263.9,64.2,263.9,64.3,263.9,64.2C263.9,64.3,263.9,64.2,263.9,64.2L263.9,64.2z M283.3,49.8L283.3,49.8l0.1-0.1
		C283.4,49.8,283.3,49.8,283.3,49.8z M284.4,55.6L284.4,55.6L284.4,55.6L284.4,55.6L284.4,55.6z M307.4,61l0.1-0.1l0,0
		C307.5,61,307.4,61,307.4,61L307.4,61z M306.2,61.6L306.2,61.6c0,0.1,0,0.1-0.1,0.2C306.1,61.7,306.2,61.6,306.2,61.6z M304.8,57.8
		c1.2-1.7,2.4-3.6,4.7-4.4c0.1,0.8-0.1,1.3,0,1.8c-0.7,0.3-0.9,1.1-1.3,1.7c-1.3,2.3-3.1,4.1-5.2,5.6c-0.6,0.4-0.9,0.2-1.1-0.1
		c0,0,0,0,0.1-0.1C302.8,60.8,303.8,59.3,304.8,57.8z M328.6,67.6L328.6,67.6C328.7,67.6,328.7,67.6,328.6,67.6L328.6,67.6
		L328.6,67.6z"/>
	<path id="XMLID_412_" d="M151.9,59.5L151.9,59.5L151.9,59.5L151.9,59.5L151.9,59.5c-1.1-0.8-1.4,0-1.9,0.8
		c-0.6,0.6-1.2,1.2-1.8,1.8c-0.9,0.5-1.6,1.4-2.3,2.1c-0.2,0.2-0.4,0.4-0.6,0.6c-3.2,1.8-3.4,1.8-4.9-0.3l0,0
		c-0.4-0.7,0.2-1.7-0.8-2.2c-0.1-0.5-0.2-1.1-0.4-1.6c0.4-1.2,0.8-2.4,0.8-3.6l0,0l0,0l0,0l0,0c0.1-0.9,1-1.8,0.3-2.8
		c-0.7-0.7-1.7-1.5-1.4-2.3s1.4-1.2,2.6-0.9c0.8,0.2,0.6-0.8,1-1.2c0-0.2,0-0.3,0.1-0.5c0,0.2,0,0.3-0.1,0.5c0.5-0.9,0.7-1.8,0-2.5
		c-0.9-0.9-1.9-1.5-3.2-0.7l0,0l0,0l0,0l0,0l0,0c-0.8,0.6-2,0.2-2.6,1.1c-0.1,0-0.2,0-0.2,0.1c-1.5,0.3-2.5,1.2-3.3,2.5
		c-1.4,1.2-2.7,2.4-4.2,3.5c-1.1,0.9-2.4,1.6-3.2,2.8c-0.3,0.5-0.9,1-0.4,1.6c0.8,1.1,0.5,2.3,0.6,3.5c0.2,1.6,0.3,3.3,1.9,4.4
		c1.5,1.5,3.3,1.9,5.1,0.7c0.9-0.6,1.6-1.5,2.1-2.5c0.2-0.5,0.4-1.2,0.9-1.2c0.8,0,0.3,1,0.8,1.3c0.9,1.6,1.3,3.5,3.3,4.3
		c1.6,1.1,3.2,2,5.2,0.7l0,0c1.3-1.1,3-1.8,3.9-3.3c0.5-0.2,0.8-0.6,1-1.1c-0.1-0.7,0.9-0.6,0.8-1.3c1-0.5,1.5-1.3,1.8-2.3l0,0
		c0.1-0.2,0.2-0.5,0.3-0.7C153.8,59.2,152.5,59.7,151.9,59.5z M132.8,59.7c-0.6,1.1-1.3,2.1-2.4,2.9c-0.5-1.2,0.6-2.1,0.5-3.1
		c1.3-1.4,2.2-3.2,4-4.5c-0.3,1.2-0.9,2.2-1,3.2C133.3,58.4,133.1,59.1,132.8,59.7z"/>
	<path id="XMLID_413_" d="M183.1,38.8c-0.2-0.1-0.3-0.3-0.4-0.3c-0.1,0-0.2,0.2-0.4,0.3c0.1,0.1,0.2,0.2,0.3,0.2
		C182.8,39.1,182.9,38.9,183.1,38.8z"/>
	<path id="XMLID_414_" d="M50.9,33.7L50.9,33.7C50.9,33.6,50.9,33.6,50.9,33.7L50.9,33.7z"/>
</g>
</svg>
